<?xml version="1.0" encoding="UTF-8"?>
<svg xmlns="http://www.w3.org/2000/svg" viewBox="0 0 64 64" width="512" height="512"><g id="Layer_30" data-name="Layer 30"><path d="M62,22H44a1,1,0,0,0-.707.293L34.586,31H33V26.414L49.707,9.707A1,1,0,0,0,50,9V2a1,1,0,0,0-1-1H32a1,1,0,0,0-.707.293l-30,30A1,1,0,0,0,1,32V62a1,1,0,0,0,1,1H19a1,1,0,0,0,.707-.293L29,53.414V59a1,1,0,0,0,1,1H48a1,1,0,0,0,.707-.293l14-14A1,1,0,0,0,63,45V40a1,1,0,0,0-1-1H52.414L62.707,28.707A1,1,0,0,0,63,28V23A1,1,0,0,0,62,22ZM44.414,24H59.586l-12,12H32.414ZM29,43.586,18.586,54H16.414L29,41.414ZM32,33h.586l-3.293,3.293A1,1,0,0,0,29,37v1.586L13.293,54.293A1,1,0,0,0,13,55v2H7V37h6v2a1,1,0,0,0,1,1h5a1,1,0,0,0,.707-.293L31,28.414V32A1,1,0,0,0,32,33ZM20,36.586V32.414l28-28V8.586ZM32.414,3H46.586l-28,28H4.414ZM3,33H18v5H15V36a1,1,0,0,0-1-1H6a1,1,0,0,0-1,1V58a1,1,0,0,0,1,1h8a1,1,0,0,0,1-1V56h3v5H3ZM20,59.586V55.414l9-9v4.172ZM31,38H47v3H35a1,1,0,0,0-1,1V54a1,1,0,0,0,1,1H47v3H31Zm30,6.586-12,12V54.414l12-12ZM59.586,41l-12,12H36V43H48a1,1,0,0,0,.707-.293L50.414,41ZM49,39.586V37.414l12-12v2.172Z"/></g></svg>
