<svg id="Layer_3" enable-background="new 0 0 64 64" height="512" viewBox="0 0 64 64" width="512" xmlns="http://www.w3.org/2000/svg"><g><path d="m59.748 11.666.509-.509c1.124-1.124 1.743-2.618 1.743-4.207 0-3.281-2.669-5.95-5.95-5.95-1.589 0-3.083.619-4.207 1.743l-.887.887c-1.096-1.609-2.926-2.63-4.932-2.63-1.567 0-3.049.603-4.172 1.697l-38.55 37.587c-1.399 1.1-2.302 2.803-2.302 4.716 0 3.309 2.691 6 6 6 1.912 0 3.614-.902 4.713-2.299l3.957-3.957c.573 1.108 1.478 2.013 2.586 2.586l-4.957 4.957c-1.397 1.099-2.299 2.801-2.299 4.713 0 3.309 2.691 6 6 6 1.912 0 3.614-.902 4.713-2.299l39.544-39.544c1.124-1.124 1.743-2.618 1.743-4.207 0-2.288-1.303-4.291-3.252-5.284zm-36.748 35.984c1.08-.384 2.018-1.065 2.713-1.949l1.287-1.287v8.172l-4 4zm25-38.236v11.172l-4 4v-11.172zm-6 17.172-4 4v-11.172l4-4zm-10 10v-11.172l4-4v11.172zm2-16v-7.439l4-3.9v7.339zm-2 2-4 4v-7.589l4-3.9zm-6 6-4 4v-7.739l4-3.9zm-2 4.828v3.398c-.776-.451-1.661-.73-2.606-.792zm2 5.276v-7.276l4-4v11.172l-3.02 3.02c-.07-1.072-.418-2.069-.98-2.916zm3 3.724 4-4v8.172l-4 4zm6-6 4-4v8.172l-4 4zm6-6 4-4v8.172l-4 4zm6-6 4-4v8.172l-4 4zm6-6 4-4v8.172l-4 4zm7-11.464c0 1.055-.411 2.047-1.157 2.793l-2.843 2.843v-9.581c.017 0 .033-.005.05-.005 2.178 0 3.95 1.772 3.95 3.95zm-6.743-2.793c.225-.225.478-.408.743-.57v11l-4 4v-11.173zm-3.742.914-3.515 3.515v-5.584c.008 0 .016-.002.024-.002 1.466 0 2.802.812 3.491 2.071zm-6.266-.942c.228-.222.484-.402.751-.562v7.019l-4 4v-7.289zm-36.249 44.871c-2.206 0-4-1.794-4-4s1.794-4 4-4 4 1.794 4 4-1.794 4-4 4zm5.98-4.394c-.195-2.972-2.557-5.356-5.52-5.583l6.54-6.376v3.353h2v-5.303l4-3.9v7.789l-2.701 2.701c-1.397 1.099-2.299 2.801-2.299 4.713 0 .188.011.374.028.558zm4.02-2.606c0-2.206 1.794-4 4-4s4 1.794 4 4-1.794 4-4 4-4-1.794-4-4zm4 6v4.54c-.971-.872-2.224-1.43-3.606-1.521l3.048-3.048c.184.018.37.029.558.029zm-4 13c-2.206 0-4-1.794-4-4s1.794-4 4-4 4 1.794 4 4-1.794 4-4 4zm42.843-41.257-.843.843v-7.07c1.207.685 2 1.976 2 3.433 0 1.056-.411 2.048-1.157 2.794z"/></g></svg>