<svg id="Layer_3" enable-background="new 0 0 64 64" height="512" viewBox="0 0 64 64" width="512" xmlns="http://www.w3.org/2000/svg"><g><path d="m1.876 41.991 7.375.923 1.801 5.402c.12.359.432.62.807.674l7 1c.047.007.095.01.141.01.375 0 .723-.211.894-.553l1.684-3.367 6.672.834 1.801 5.402c.12.359.432.62.807.674l7 1c.048.007.096.01.142.01.375 0 .723-.211.894-.553l1.684-3.368 7.297.913c.042.005.084.008.125.008.384 0 .74-.222.906-.577l14-30c.135-.29.124-.626-.031-.907-.154-.28-.434-.469-.751-.508l-8-1c-.422-.053-.846.176-1.03.569l-1.562 3.347-5.778-.826-1.805-5.414c-.122-.365-.442-.628-.825-.676l-8-1c-.422-.055-.846.176-1.03.569l-1.562 3.346-5.779-.826-1.805-5.414c-.122-.365-.442-.628-.825-.676l-8-1c-.422-.052-.846.176-1.03.569l-14 30c-.135.29-.124.627.031.906.155.281.435.469.752.509zm21.969-27.294 1.08 3.241-12.77 27.365-1.08-3.241zm19 4 1.08 3.241-12.77 27.365-1.08-3.241zm11.753 1.385 5.915.74-13.111 28.095-5.915-.739zm-15.504 28.494-1.666 3.332-4.951-.707 13.116-28.106 5.055.722zm-3.496-32.494 5.915.74-13.111 28.095-5.914-.74zm-15.497 28.48-1.673 3.346-4.951-.707 13.116-28.107 5.056.722zm-3.503-32.48 5.915.74-13.111 28.095-5.915-.74z"/></g></svg>