<?xml version="1.0" encoding="UTF-8" standalone="no"?>
<!-- Created with Inkscape (http://www.inkscape.org/) -->

<svg
   version="1.1"
   id="svg1146"
   xml:space="preserve"
   width="682.66669"
   height="682.66669"
   viewBox="0 0 682.66669 682.66669"
   xmlns="http://www.w3.org/2000/svg"
   xmlns:svg="http://www.w3.org/2000/svg"><defs
     id="defs1150"><clipPath
       clipPathUnits="userSpaceOnUse"
       id="clipPath1160"><path
         d="M 0,512 H 512 V 0 H 0 Z"
         id="path1158" /></clipPath></defs><g
     id="g1152"
     transform="matrix(1.3333333,0,0,-1.3333333,0,682.66667)"><g
       id="g1154"><g
         id="g1156"
         clip-path="url(#clipPath1160)"><g
           id="g1162"
           transform="translate(407,14.9998)"><path
             d="M 0,0 H -347"
             style="fill:none;stroke:#000000;stroke-width:30;stroke-linecap:butt;stroke-linejoin:miter;stroke-miterlimit:10;stroke-dasharray:none;stroke-opacity:1"
             id="path1164" /></g><g
           id="g1166"
           transform="translate(497,104.9998)"><path
             d="m 0,0 c 0,-49.706 -40.294,-90 -90,-90 -49.706,0 -90,40.294 -90,90 0,49.706 40.294,90 90,90 C -40.294,90 0,49.706 0,0 Z"
             style="fill:none;stroke:#000000;stroke-width:30;stroke-linecap:butt;stroke-linejoin:miter;stroke-miterlimit:10;stroke-dasharray:none;stroke-opacity:1"
             id="path1168" /></g><g
           id="g1170"
           transform="translate(407,74.9998)"><path
             d="M 0,0 C -16.538,0 -30,13.462 -30,30 -30,46.538 -16.538,60 0,60 16.538,60 30,46.538 30,30 30,13.462 16.538,0 0,0 Z"
             style="fill:none;stroke:#000000;stroke-width:30;stroke-linecap:butt;stroke-linejoin:miter;stroke-miterlimit:10;stroke-dasharray:none;stroke-opacity:1"
             id="path1172" /></g><g
           id="g1174"
           transform="translate(317,104.9998)"><path
             d="m 0,0 v 302 c 0,49.706 40.294,90 90,90 49.705,0 90,-40.294 90,-90 V 0"
             style="fill:none;stroke:#000000;stroke-width:30;stroke-linecap:butt;stroke-linejoin:miter;stroke-miterlimit:10;stroke-dasharray:none;stroke-opacity:1"
             id="path1176" /></g><g
           id="g1178"
           transform="translate(105,376.9998)"><path
             d="M 0,0 H 212"
             style="fill:none;stroke:#000000;stroke-width:30;stroke-linecap:butt;stroke-linejoin:miter;stroke-miterlimit:10;stroke-dasharray:none;stroke-opacity:1"
             id="path1180" /></g><g
           id="g1182"
           transform="translate(15,59.9998)"><path
             d="m 0,0 v 332 c 0,24.853 20.147,45 45,45 H 90 V 45 H 45 C 20.147,45 0,24.853 0,0 0,-24.853 20.147,-45 45,-45 h 45"
             style="fill:none;stroke:#000000;stroke-width:30;stroke-linecap:butt;stroke-linejoin:miter;stroke-miterlimit:10;stroke-dasharray:none;stroke-opacity:1"
             id="path1184" /></g></g></g></g></svg>
