<?xml version="1.0" encoding="iso-8859-1"?>
<!-- Generator: Adobe Illustrator 19.0.0, SVG Export Plug-In . SVG Version: 6.00 Build 0)  -->
<svg version="1.1" id="Layer_1" xmlns="http://www.w3.org/2000/svg" xmlns:xlink="http://www.w3.org/1999/xlink" x="0px" y="0px"
	 viewBox="0 0 512 512" style="enable-background:new 0 0 512 512;" xml:space="preserve">
<g>
	<g>
		<path d="M337.684,148.037c4.681,0,8.474-3.794,8.474-8.474V86.568c0-4.68-3.793-8.474-8.474-8.474h-0.739V57.202
			c0-4.68-3.793-8.474-8.474-8.474h-1.034V8.474c0-4.68-3.793-8.474-8.474-8.474c-4.681,0-8.474,3.794-8.474,8.474v40.254H202.112
			V8.474c0-4.68-3.793-8.474-8.474-8.474c-4.681,0-8.474,3.794-8.474,8.474v40.254h-1.034c-4.681,0-8.474,3.794-8.474,8.474v20.891
			h-1.34c-4.681,0-8.474,3.794-8.474,8.474v52.996c0,4.68,3.793,8.474,8.474,8.474h10.843v215.925h-10.843
			c-4.681,0-8.474,3.794-8.474,8.474v52.996c0,4.68,3.793,8.474,8.474,8.474h0.738v20.891c0,4.68,3.793,8.474,8.474,8.474h1.034
			v40.254c0,4.68,3.793,8.474,8.474,8.474s8.474-3.794,8.474-8.474v-40.254h108.378v40.254c0,4.68,3.793,8.474,8.474,8.474
			s8.474-3.794,8.474-8.474v-40.254h1.034c4.681,0,8.474-3.794,8.474-8.474v-20.891h1.341c4.681,0,8.474-3.794,8.474-8.474v-52.996
			c0-4.68-3.793-8.474-8.474-8.474h-10.251V148.037H337.684z M192.603,65.676h127.394v12.417H192.603V65.676z M319.395,446.325
			H192.002v-12.417h127.394V446.325z M329.21,380.912v36.048H182.79v-36.048H329.21z M202.106,363.957V148.037h108.378v215.919
			H202.106z M182.79,131.089V95.042H329.21v36.048H182.79z"/>
	</g>
</g>
<g>
</g>
<g>
</g>
<g>
</g>
<g>
</g>
<g>
</g>
<g>
</g>
<g>
</g>
<g>
</g>
<g>
</g>
<g>
</g>
<g>
</g>
<g>
</g>
<g>
</g>
<g>
</g>
<g>
</g>
</svg>
