<svg id="Line" enable-background="new 0 0 128 128" height="512" viewBox="0 0 128 128" width="512" xmlns="http://www.w3.org/2000/svg"><g><path d="m113 54c0-8.271-6.729-15-15-15s-15 6.729-15 15 6.729 15 15 15 15-6.729 15-15zm-27.949 1h2.949c.552 0 1-.448 1-1s-.448-1-1-1h-2.949c.488-6.37 5.579-11.461 11.949-11.949v2.949c0 .552.448 1 1 1s1-.448 1-1v-2.949c6.37.488 11.461 5.579 11.949 11.949h-2.949c-.552 0-1 .448-1 1s.448 1 1 1h2.949c-.488 6.37-5.579 11.461-11.949 11.949v-2.949c0-.552-.448-1-1-1s-1 .448-1 1v2.949c-6.37-.488-11.461-5.579-11.949-11.949z"/><path d="m126 107h-22v-8.142c1.399-.364 2.494-1.459 2.858-2.858h4.142c1.302 0 2.402-.839 2.816-2h4.956l-.766 6.89c-.004.037-.006.073-.006.11 0 2.206 1.794 4 4 4s4-1.794 4-4c0-.037-.002-.074-.006-.11l-.787-7.086c1.087-.918 1.793-2.273 1.793-3.804s-.706-2.886-1.794-3.804l.787-7.085c.005-.037.007-.074.007-.111 0-2.206-1.794-4-4-4s-4 1.794-4 4c0 .037.002.074.006.11l.766 6.89h-4.956c-.414-1.161-1.514-2-2.816-2h-4c0-1.858-1.28-3.411-3-3.858v-8.128c7.542-2.519 13-9.635 13-18.014 0-10.477-8.523-19-19-19s-19 8.523-19 19c0 8.379 5.458 15.494 13 18.014v8.128c-1.72.447-3 2-3 3.858v11c0 1.858 1.28 3.411 3 3.858v8.142h-6.161c-.386-1.158-1.468-2-2.754-2h-2.17c-1.286 0-2.367.842-2.754 2h-10.161v-12.161c1.158-.386 2-1.468 2-2.754v-2.17c0-1.286-.842-2.367-2-2.754v-52.322c1.158-.386 2-1.468 2-2.754v-2.17c0-1.286-.842-2.367-2-2.754v-25.161c0-.552-.448-1-1-1h-14c-.552 0-1 .448-1 1v25.161c-1.158.386-2 1.468-2 2.754v2.17c0 1.286.842 2.367 2 2.754v16.161h-25c-.551 0-1-.449-1-1v-12.137c1.154-.356 2-1.419 2-2.688v-2.349c0-1.269-.846-2.332-2-2.688v-13.138c0-8.822-7.178-16-16-16h-8c-.552 0-1 .448-1 1v14c0 .552.448 1 1 1h7c.551 0 1 .449 1 1v12.137c-1.154.356-2 1.419-2 2.688v2.349c0 1.269.846 2.332 2 2.688v13.138c0 8.822 7.178 16 16 16h26v20.161c-1.158.386-2 1.468-2 2.754v2.17c0 1.286.842 2.367 2 2.754v12.161h-11.161c-.386-1.158-1.468-2-2.754-2h-2.17c-1.286 0-2.367.842-2.754 2h-11.161v-4c0-1.302-.839-2.402-2-2.816v-4.956l6.89.766c.036.004.073.006.11.006 2.206 0 4-1.794 4-4s-1.794-4-4-4c-.037 0-.074.002-.11.006l-7.085.787c-.919-1.087-2.274-1.793-3.805-1.793s-2.886.706-3.804 1.794l-7.086-.788c-.036-.004-.073-.006-.11-.006-2.206 0-4 1.794-4 4s1.794 4 4 4c.037 0 .074-.002.11-.006l6.89-.766v4.956c-1.161.414-2 1.514-2 2.816v4h-8c-.552 0-1 .448-1 1v14c0 .552.448 1 1 1h31.161c.386 1.158 1.468 2 2.754 2h2.17c1.286 0 2.367-.842 2.754-2h37.323c.386 1.158 1.468 2 2.754 2h2.17c1.286 0 2.367-.842 2.754-2h40.16c.552 0 1-.448 1-1v-14c0-.552-.448-1-1-1zm-1-17c0 1.654-1.346 3-3 3s-3-1.346-3-3 1.346-3 3-3 3 1.346 3 3zm-7.576 2h-3.424v-4h3.424c-.269.614-.424 1.288-.424 2s.154 1.386.424 2zm6.576 9.05c-.027 1.08-.914 1.95-2 1.95s-1.973-.87-2-1.95l.694-6.245c.419.114.851.195 1.306.195s.887-.081 1.306-.195zm-2-24.05c1.086 0 1.973.87 2 1.95l-.694 6.245c-.419-.114-.851-.195-1.306-.195s-.887.081-1.306.195l-.694-6.245c.027-1.08.914-1.95 2-1.95zm-11 9c.551 0 1 .449 1 1v6c0 .551-.449 1-1 1h-4v-8zm-30-32c0-9.374 7.626-17 17-17s17 7.626 17 17-7.626 17-17 17-17-7.626-17-17zm17 19c1.373 0 2.709-.154 4-.432v7.432h-8v-7.432c1.291.278 2.627.432 4 .432zm-7 22v-11c0-1.103.897-2 2-2h10c1.103 0 2 .897 2 2v11c0 1.103-.897 2-2 2h-10c-1.103 0-2-.897-2-2zm3 4h8v8h-8zm-16 10v12h-37v-12zm-12-74v52h-12v-52zm0-32v24h-12v-24zm-14 26.915c0-.504.411-.915.915-.915h14.17c.504 0 .915.411.915.915v2.17c0 .504-.411.915-.915.915h-14.17c-.504 0-.915-.411-.915-.915zm-43-14.915h-6v-12h7c7.72 0 14 6.28 14 14v13h-12v-12c0-1.654-1.346-3-3-3zm1 17.826c0-.455.371-.826.826-.826h14.349c.454 0 .825.371.825.826v2.349c0 .454-.371.825-.826.825h-14.348c-.455 0-.826-.371-.826-.826zm16 32.174c-7.72 0-14-6.28-14-14v-13h12v12c0 1.654 1.346 3 3 3h25v12zm26 24.915c0-.504.411-.915.915-.915h14.17c.504 0 .915.411.915.915v2.17c0 .504-.411.915-.915.915h-14.17c-.504 0-.915-.411-.915-.915zm2 5.085h12v12h-12zm-38 2c.712 0 1.386-.154 2-.424v3.424h-4v-3.424c.614.27 1.288.424 2 .424zm11.05-7c1.08.027 1.95.914 1.95 2s-.87 1.973-1.95 2l-6.245-.694c.114-.419.195-.851.195-1.306s-.081-.887-.195-1.306zm-11.05-1c1.654 0 3 1.346 3 3s-1.346 3-3 3-3-1.346-3-3 1.346-3 3-3zm-11.05 5c-1.08-.027-1.95-.914-1.95-2s.87-1.973 1.95-2l6.245.694c-.114.419-.195.851-.195 1.306s.081.887.195 1.306zm7.05 9c0-.551.449-1 1-1h6c.551 0 1 .449 1 1v4h-8zm-9 6h30v12h-30zm36 13.085c0 .504-.411.915-.915.915h-2.17c-.504 0-.915-.411-.915-.915v-14.17c0-.504.411-.915.915-.915h2.17c.504 0 .915.411.915.915zm45 0c0 .504-.411.915-.915.915h-2.17c-.504 0-.915-.411-.915-.915v-14.17c0-.504.411-.915.915-.915h2.17c.504 0 .915.411.915.915zm41-1.085h-39v-12h39z"/><path d="m98 57c.462 0 .894-.113 1.285-.301l3.008 3.008c.195.195.451.293.707.293s.512-.098.707-.293c.391-.391.391-1.023 0-1.414l-3.008-3.008c.188-.391.301-.823.301-1.285 0-1.654-1.346-3-3-3-.462 0-.894.113-1.285.301l-3.008-3.008c-.391-.391-1.023-.391-1.414 0s-.391 1.023 0 1.414l3.008 3.008c-.188.391-.301.823-.301 1.285 0 1.654 1.346 3 3 3zm1-3c0 .551-.449 1-1 1s-1-.449-1-1 .449-1 1-1 1 .449 1 1z"/></g></svg>