<svg id="Capa_1" enable-background="new 0 0 609.62 609.62" height="512" viewBox="0 0 609.62 609.62" width="512" xmlns="http://www.w3.org/2000/svg"><g><g id="Page-1_43_"><g id="_x30_44---Scaffolding-Errection"><path id="Shape_114_" d="m589.294 60.962h-142.244c-5.611 0-10.16 4.549-10.16 10.16v50.802h-40.641c-5.611 0-10.16 4.549-10.16 10.16v50.802h-40.641c-5.611 0-10.16 4.549-10.16 10.16v50.802h-20.321v-213.367c-.002-16.834-13.649-30.481-30.483-30.481s-30.481 13.647-30.481 30.481v16.409l-86.363 95.446-86.363-95.446v-16.409c0-16.834-13.646-30.481-30.481-30.481s-30.481 13.647-30.481 30.481v520.047c-13.986 4.926-22.38 19.222-19.867 33.836s15.199 25.285 30.028 25.257h40.641c16.834 0 30.481-13.647 30.481-30.481-.034-3.469-.666-6.906-1.87-10.16h135.823c-1.203 3.254-1.836 6.691-1.87 10.16 0 16.834 13.647 30.481 30.481 30.481h40.641c16.834 0 30.481-13.647 30.481-30.481-.034-3.469-.666-6.906-1.869-10.16h255.878c11.223 0 20.321-9.098 20.321-20.321v-467.376c.001-11.223-9.097-20.321-20.32-20.321zm-91.443 426.734h-40.641v-40.641h81.283v40.641zm-101.603 0h-40.641v-40.641h81.283v40.641zm-10.16 60.962h-71.122v-40.641h71.122zm10.16-223.527h40.641v40.641h-81.283v-40.641zm10.16-60.962h81.283v40.641h-81.283zm50.802-60.962h81.283v40.641h-81.283zm50.802-60.962h81.283v40.641h-81.283zm81.282 284.489h-81.283v-40.641h81.283zm-142.244 0h-40.641v-40.641h81.283v40.641zm-101.604 0h-30.481v-40.641h71.122v40.641zm-10.16 60.962h-20.321v-40.641h20.321zm121.924-162.565h81.283v40.641h-81.283zm101.603 40.641v-40.641h30.481v40.641zm30.481-60.962h-81.283v-40.641h81.283zm-30.481-60.962v-40.641h30.481v40.641zm-223.527 121.924h-20.321v-40.641h20.321zm223.527 81.283h30.481v40.641h-30.481zm30.481-325.131h-30.481v-40.641h30.481zm-132.084-40.641h81.283v40.641h-81.283zm-50.802 60.962h81.283v40.641h-81.283zm-50.801 60.962h81.283v40.641h-81.283zm-10.161 60.962h40.641v40.641h-71.122v-40.641zm-71.122-233.688c0-5.611 4.549-10.16 10.16-10.16s10.16 4.549 10.16 10.16v518.177h-20.321v-518.177zm-20.321 300.746v160.533l-72.657-80.267zm-86.363 65.158-73.632-81.415h147.264zm86.363-101.735h-172.726v-20.321h172.726zm-100.069 116.844-72.657 80.266v-160.533zm13.706 15.149 73.632 81.374h-147.264zm-73.632-172.635 73.632-81.374 73.632 81.374zm-12.731 274.33h172.726v20.321h-172.726zm172.726-451.119v160.533l-72.657-80.267zm-100.069 80.266-72.657 80.267v-160.533zm-113.298-127.004c0-5.611 4.549-10.16 10.16-10.16s10.16 4.549 10.16 10.16v518.177h-20.32zm40.641 548.658c0 5.611-4.549 10.16-10.16 10.16h-40.641c-5.611 0-10.16-4.549-10.16-10.16s4.549-10.16 10.16-10.16h40.641c5.611 0 10.16 4.549 10.16 10.16zm233.688 0c0 5.611-4.549 10.16-10.16 10.16h-40.641c-5.611 0-10.16-4.549-10.16-10.16s4.549-10.16 10.16-10.16h40.641c5.611 0 10.16 4.549 10.16 10.16zm91.443-71.122h81.283v40.641h-81.283zm101.604 40.641v-40.641h81.283v40.641z"/></g></g></g></svg>