<svg id="metallurgy" height="512" viewBox="0 0 512 512" width="512" xmlns="http://www.w3.org/2000/svg"><path d="m481.026 71c-.181-.002-18.362-.407-36.491-18.536-26.163-26.163-52.43-26.464-53.535-26.464s-27.372.301-53.535 26.464c-18.129 18.129-36.311 18.534-36.439 18.536-.181-.002-18.362-.407-36.491-18.536-26.163-26.163-52.43-26.464-53.535-26.464s-27.372.301-53.536 26.464c-18.128 18.129-36.309 18.534-36.437 18.536-.182-.002-18.363-.407-36.491-18.536-26.164-26.163-52.431-26.464-53.536-26.464-2.761 0-5 2.239-5 5v405c0 2.762 2.239 5 5 5 .229 0 23.198.27 46.464 23.535 21.221 21.221 42.635 21.465 43.536 21.465s22.315-.244 43.536-21.465c23.068-23.068 46.254-23.533 46.464-23.535.229 0 23.198.27 46.465 23.535 21.22 21.221 42.634 21.465 43.535 21.465s22.315-.244 43.535-21.465c23.069-23.068 46.255-23.533 46.465-23.535.229 0 23.198.27 46.465 23.535 21.22 21.221 42.634 21.465 43.535 21.465 2.762 0 5-2.238 5-5v-405c0-2.74-2.233-4.97-4.974-5zm-365.026 404.324c-6.68-1.365-19.084-5.479-31.464-17.859-19.733-19.733-39.525-24.755-48.536-26.031v-394.88c8.049 1.381 24.679 6.197 41.464 22.982 15.363 15.362 30.827 19.731 38.536 20.973zm90-43.89c-9.011 1.276-28.803 6.298-48.536 26.031-12.39 12.39-24.806 16.501-31.464 17.863v-394.819c7.709-1.242 23.173-5.61 38.536-20.973 16.66-16.66 33.38-21.531 41.464-22.952zm90 43.89c-6.68-1.365-19.084-5.479-31.465-17.859-19.732-19.733-39.524-24.755-48.535-26.031v-394.88c8.049 1.381 24.679 6.197 41.465 22.982 15.362 15.362 30.826 19.731 38.535 20.973zm90-43.89c-9.011 1.276-28.803 6.298-48.535 26.031-12.391 12.39-24.806 16.501-31.465 17.863v-394.819c7.709-1.242 23.173-5.61 38.535-20.973 16.66-16.66 33.381-21.531 41.465-22.952zm90 43.89c-6.68-1.365-19.084-5.479-31.465-17.859-19.732-19.733-39.524-24.755-48.535-26.031v-394.88c8.049 1.381 24.68 6.197 41.465 22.982 15.362 15.362 30.826 19.731 38.535 20.973z" fill="rgb(0,0,0)"/></svg>