<svg id="rebar" height="512" viewBox="0 0 512 512" width="512" xmlns="http://www.w3.org/2000/svg"><path d="m133.5 316c-33.084 0-60 26.916-60 60s26.916 60 60 60 60-26.916 60-60-26.916-60-60-60zm0 110c-27.57 0-50-22.43-50-50s22.43-50 50-50 50 22.43 50 50-22.43 50-50 50zm193.703-318.453c1.855 2.045 1.702 5.207-.343 7.063 0 0-104.681 94.992-105 95.281-4.81 4.365-11.521-3.049-6.72-7.405l105-95.281c2.047-1.858 5.207-1.704 7.063.342zm51.297-76.547c-.456 0-11.306.063-22.236 5.528-.396.198-291.402 260.037-291.54 260.194-22.18 19.266-36.224 47.662-36.224 79.278 0 57.897 47.103 105 105 105 34.059 0 64.379-16.297 83.576-41.506.032-.032.064-.066.095-.1 2.449-2.649 245.047-265.042 254.864-274.859 11.335-11.334 11.465-27.837 11.465-28.535 0-57.897-47.103-105-105-105zm-245 440c-52.383 0-95-42.617-95-95s42.617-95 95-95 95 42.617 95 95-42.617 95-95 95zm331.465-313.535c-8.186 8.185-168.62 181.592-230.974 249.012 2.932-9.649 4.509-19.883 4.509-30.477 0-57.897-47.103-105-105-105-10.372 0-20.396 1.512-29.866 4.326l257.682-230.138c8.558-4.094 17.109-4.188 17.184-4.188 52.383 0 95 42.617 95 94.984-.001.131-.182 13.127-8.535 21.481z" fill="rgb(0,0,0)"/></svg>