<?xml version="1.0" encoding="UTF-8"?>
<svg xmlns="http://www.w3.org/2000/svg" id="Layer_3" data-name="Layer 3" viewBox="0 0 64 64" width="512" height="512"><path d="M61,28V7h1a1,1,0,0,0,1-1V2a1,1,0,0,0-1-1H2A1,1,0,0,0,1,2V6A1,1,0,0,0,2,7H3V28a3,3,0,0,0,2,2.816V57H2a1,1,0,0,0-1,1v4a1,1,0,0,0,1,1H62a1,1,0,0,0,1-1V58a1,1,0,0,0-1-1H59V30.816A3,3,0,0,0,61,28Zm-3,1H6a1,1,0,0,1-1-1V27H59v1A1,1,0,0,1,58,29ZM11,31H27.1A5.016,5.016,0,0,0,31,34.9v8.285a3,3,0,1,0,2,0V34.9A5.016,5.016,0,0,0,36.9,31H53V53H11ZM33,46a1,1,0,1,1-1-1A1,1,0,0,1,33,46ZM32,33a3,3,0,0,1-2.816-2h5.632A3,3,0,0,1,32,33ZM5,11H59v2H5Zm0,4H59v2H5Zm0,4H59v2H5Zm0,4H59v2H5ZM3,3H61V5H3ZM59,7V9H5V7Zm2,54H3V59H61ZM7,57V31H9V54a1,1,0,0,0,1,1H54a1,1,0,0,0,1-1V31h2V57Z"/></svg>
